<svg width="60" height="60" viewBox="0 0 60 60" fill="none" xmlns="http://www.w3.org/2000/svg">
<circle cx="30" cy="30" r="28" fill="#FDC55E" stroke="white" stroke-width="4"/>
<path d="M22.26 35V23.138L18.732 24.416V25.964L20.64 25.298V35H22.26ZM25.1757 29.15C25.1757 32.444 26.0757 35.162 29.4417 35.162C31.0797 35.162 32.2497 34.532 32.8437 33.38C33.4737 32.228 33.6897 30.932 33.6897 29.15C33.6897 27.35 33.4737 26.036 32.8437 24.884C32.2497 23.732 31.0977 23.102 29.4417 23.102C27.8037 23.102 26.6517 23.732 26.0217 24.884C25.4277 26.036 25.1757 27.368 25.1757 29.15ZM26.7957 29.15C26.7957 26.396 27.4797 24.722 29.4417 24.722C31.4037 24.722 32.0877 26.396 32.0877 29.15C32.0877 31.886 31.4037 33.56 29.4417 33.56C27.4797 33.56 26.7957 31.886 26.7957 29.15ZM40.5381 35.162C42.6261 35 43.9941 33.668 44.2101 31.94C44.4441 29.996 43.2561 28.646 40.8981 28.052L39.2781 27.656C38.1081 27.368 37.5141 26.792 37.5141 25.928C37.5141 25.37 37.7481 24.92 38.1981 24.578C38.6661 24.236 39.2061 24.056 39.8361 24.056C41.2041 24.056 42.1761 24.866 42.1761 26.09H43.8501C43.8501 24.128 42.5001 22.778 40.5381 22.508V20.69H39.4221V22.49C38.4321 22.58 37.5861 22.958 36.8841 23.588C36.1821 24.218 35.8401 25.01 35.8401 25.946C35.8401 27.584 36.8481 28.664 38.8641 29.186L40.4661 29.582C41.7441 29.852 42.6621 30.572 42.5721 31.796C42.4101 32.822 41.5641 33.614 40.0701 33.614C39.3141 33.614 38.6841 33.398 38.1801 32.948C37.6761 32.498 37.4241 31.976 37.4061 31.418H35.7321C35.7321 32.336 36.0741 33.146 36.7581 33.866C37.4601 34.586 38.3421 35.018 39.4221 35.144V37.142H40.5381V35.162Z" fill="white"/>
</svg>
