<svg width="60" height="60" viewBox="0 0 60 60" fill="none" xmlns="http://www.w3.org/2000/svg">
<circle cx="30" cy="30" r="28" fill="#FDC55E" stroke="white" stroke-width="4"/>
<path d="M21.6444 35V23.138L18.1164 24.416V25.964L20.0244 25.298V35H21.6444ZM24.2361 32.498C24.9561 34.136 26.4861 35.18 28.1421 35.18C29.4561 35.18 30.5181 34.82 31.3281 34.1C32.1381 33.38 32.5521 32.426 32.5521 31.22C32.5521 30.05 32.1741 29.132 31.4001 28.466C30.6261 27.8 29.6721 27.458 28.5381 27.458C27.8181 27.458 26.8461 27.764 26.3241 28.142L26.9721 24.812H31.9041V23.264H25.6401L24.6141 29.114L25.6221 29.942C26.2521 29.564 26.7561 29.312 27.1701 29.186C27.5841 29.042 28.0341 28.97 28.5381 28.97C29.9241 28.97 30.9681 29.78 30.9681 31.22C30.9681 32.642 30.0141 33.614 28.1421 33.614C27.0441 33.614 26.0721 32.894 25.6221 31.742L24.2361 32.498ZM39.1842 35.162C41.2722 35 42.6402 33.668 42.8562 31.94C43.0902 29.996 41.9022 28.646 39.5442 28.052L37.9242 27.656C36.7542 27.368 36.1602 26.792 36.1602 25.928C36.1602 25.37 36.3942 24.92 36.8442 24.578C37.3122 24.236 37.8522 24.056 38.4822 24.056C39.8502 24.056 40.8222 24.866 40.8222 26.09H42.4962C42.4962 24.128 41.1462 22.778 39.1842 22.508V20.69H38.0682V22.49C37.0782 22.58 36.2322 22.958 35.5302 23.588C34.8282 24.218 34.4862 25.01 34.4862 25.946C34.4862 27.584 35.4942 28.664 37.5102 29.186L39.1122 29.582C40.3902 29.852 41.3082 30.572 41.2182 31.796C41.0562 32.822 40.2102 33.614 38.7162 33.614C37.9602 33.614 37.3302 33.398 36.8262 32.948C36.3222 32.498 36.0702 31.976 36.0522 31.418H34.3782C34.3782 32.336 34.7202 33.146 35.4042 33.866C36.1062 34.586 36.9882 35.018 38.0682 35.144V37.142H39.1842V35.162Z" fill="white"/>
</svg>
