<svg width="60" height="60" viewBox="0 0 60 60" fill="none" xmlns="http://www.w3.org/2000/svg">
<circle cx="30" cy="30" r="28" fill="#FDC55E" stroke="white" stroke-width="4"/>
<path d="M22.3186 26.108C22.3186 26.936 22.6066 27.62 23.1826 28.178C22.0846 28.844 21.4006 30.032 21.4006 31.328C21.4006 32.408 21.7786 33.326 22.5526 34.064C23.3266 34.802 24.2986 35.162 25.4506 35.162C26.5846 35.162 27.5566 34.784 28.3306 34.046C29.1046 33.308 29.5006 32.39 29.5006 31.328C29.5006 30.032 28.8346 28.88 27.7006 28.178C28.3126 27.62 28.6186 26.936 28.6186 26.108C28.6186 25.262 28.3126 24.56 27.7006 23.984C27.0886 23.39 26.3326 23.102 25.4506 23.102C24.5686 23.102 23.8126 23.39 23.2186 23.984C22.6246 24.56 22.3186 25.262 22.3186 26.108ZM23.0206 31.328C23.0206 30.734 23.2366 30.212 23.6866 29.762C24.1366 29.312 24.6766 29.078 25.3246 29.06H25.4506C26.1346 29.06 26.7106 29.276 27.1786 29.726C27.6466 30.176 27.8806 30.698 27.8806 31.328C27.8806 31.958 27.6466 32.48 27.1786 32.912C26.7106 33.344 26.1346 33.56 25.4506 33.56C24.7666 33.56 24.1906 33.344 23.7226 32.912C23.2546 32.48 23.0206 31.958 23.0206 31.328ZM25.3606 27.548C24.5506 27.53 23.9206 26.882 23.9206 26.108C23.9206 25.334 24.5866 24.722 25.4506 24.722C26.3326 24.722 26.9986 25.334 26.9986 26.108C26.9986 26.882 26.3686 27.53 25.5046 27.548H25.3606ZM36.152 35.162C38.24 35 39.608 33.668 39.824 31.94C40.058 29.996 38.87 28.646 36.512 28.052L34.892 27.656C33.722 27.368 33.128 26.792 33.128 25.928C33.128 25.37 33.362 24.92 33.812 24.578C34.28 24.236 34.82 24.056 35.45 24.056C36.818 24.056 37.79 24.866 37.79 26.09H39.464C39.464 24.128 38.114 22.778 36.152 22.508V20.69H35.036V22.49C34.046 22.58 33.2 22.958 32.498 23.588C31.796 24.218 31.454 25.01 31.454 25.946C31.454 27.584 32.462 28.664 34.478 29.186L36.08 29.582C37.358 29.852 38.276 30.572 38.186 31.796C38.024 32.822 37.178 33.614 35.684 33.614C34.928 33.614 34.298 33.398 33.794 32.948C33.29 32.498 33.038 31.976 33.02 31.418H31.346C31.346 32.336 31.688 33.146 32.372 33.866C33.074 34.586 33.956 35.018 35.036 35.144V37.142H36.152V35.162Z" fill="white"/>
</svg>
